<?xml version="1.0" standalone="no"?>
<!DOCTYPE svg PUBLIC "-//W3C//DTD SVG 1.1//EN" "http://www.w3.org/Graphics/SVG/1.1/DTD/svg11.dtd" >
<svg xmlns="http://www.w3.org/2000/svg">
<metadata>
Created by FontForge 20120731 at Tue Jul  4 16:38:20 2017
 By admin
</metadata>
<defs>
<font id="iconfont" horiz-adv-x="1024" >
  <font-face 
    font-family="iconfont"
    font-weight="500"
    font-stretch="normal"
    units-per-em="1024"
    panose-1="2 0 6 3 0 0 0 0 0 0"
    ascent="896"
    descent="-128"
    x-height="792"
    bbox="0 -128 1302 896"
    underline-thickness="0"
    underline-position="0"
    unicode-range="U+0078-E72E"
  />
<missing-glyph 
 />
    <glyph glyph-name=".notdef" 
 />
    <glyph glyph-name=".notdef" 
 />
    <glyph glyph-name=".null" horiz-adv-x="0" 
 />
    <glyph glyph-name="nonmarkingreturn" horiz-adv-x="341" 
 />
    <glyph glyph-name="x" unicode="x" horiz-adv-x="1001" 
d="M281 543q-27 -1 -53 -1h-83q-18 0 -36.5 -6t-32.5 -18.5t-23 -32t-9 -45.5v-76h912v41q0 16 -0.5 30t-0.5 18q0 13 -5 29t-17 29.5t-31.5 22.5t-49.5 9h-133v-97h-438v97zM955 310v-52q0 -23 0.5 -52t0.5 -58t-10.5 -47.5t-26 -30t-33 -16t-31.5 -4.5q-14 -1 -29.5 -0.5
t-29.5 0.5h-32l-45 128h-439l-44 -128h-29h-34q-20 0 -45 1q-25 0 -41 9.5t-25.5 23t-13.5 29.5t-4 30v167h911zM163 247q-12 0 -21 -8.5t-9 -21.5t9 -21.5t21 -8.5q13 0 22 8.5t9 21.5t-9 21.5t-22 8.5zM316 123q-8 -26 -14 -48q-5 -19 -10.5 -37t-7.5 -25t-3 -15t1 -14.5
t9.5 -10.5t21.5 -4h37h67h81h80h64h36q23 0 34 12t2 38q-5 13 -9.5 30.5t-9.5 34.5q-5 19 -11 39h-368zM336 498v228q0 11 2.5 23t10 21.5t20.5 15.5t34 6h188q31 0 51.5 -14.5t20.5 -52.5v-227h-327z" />
    <glyph glyph-name="down" unicode="&#xe6b7;" 
d="M757 324h184l-432 -432l-432 432h184v544h496v-544z" />
    <glyph glyph-name="weixin" unicode="&#xe64b;" 
d="M688 541q15 0 33 -2q-22 100 -121.5 166t-227.5 66q-94 0 -173.5 -37t-126 -102t-46.5 -142q0 -131 139 -223l-35 -100l121 58q88 -16 121 -16q16 0 33 1q-11 35 -11 69q0 109 85.5 185.5t208.5 76.5zM502 630q20 0 31.5 -11t11.5 -29.5t-12 -30t-31 -11.5
q-20 0 -36 11.5t-16 29.5t16 29.5t36 11.5zM260 548q-21 0 -36.5 11.5t-15.5 29.5t15.5 29.5t36.5 11.5q19 0 31 -11t12 -29.5t-12 -30t-31 -11.5zM1004 283q0 65 -41 120.5t-108.5 87.5t-144.5 32q-123 0 -208.5 -70t-85.5 -169.5t85.5 -170t208.5 -70.5q35 0 104 17
l95 -50l-26 83q121 87 121 190zM615 325q-13 0 -24 10t-11 22.5t11 23t24 10.5q18 0 30.5 -10t12.5 -23.5t-12.5 -23t-30.5 -9.5zM805 325q-13 0 -23.5 10t-10.5 22.5t10.5 23t23.5 10.5q19 0 31 -10.5t12 -23t-12 -22.5t-31 -10z" />
    <glyph glyph-name="zhifubao" unicode="&#xe601;" horiz-adv-x="1285" 
d="M593 208q-49 -63 -107 -101.5t-105.5 -50t-94.5 -10.5t-72.5 8t-39.5 14q-31 8 -51 37.5t-23.5 64t13.5 69.5t55 53q62 20 125 22t121 -11.5t102 -30.5t94 -42q-15 -22 -17 -22zM778 269q34 63 60.5 131t36.5 106l9 37h-263v101h307v39h-307v151h-140v-151h-279v-45h279
v-100h-235v-45h481q0 -6 -5 -17q0 -23 -11 -56.5t-21.5 -56t-29.5 -60.5q-64 25 -122 42t-100.5 25.5t-81 11t-63 0.5t-48 -7t-34 -9.5t-23.5 -11t-14 -6.5q-48 -35 -74.5 -74t-30.5 -75t3 -71t25 -63t37 -49.5t36 -32.5t26 -10q314 -70 526 185q5 -6 22 -6q78 -45 447 -218
v0v212q-77 7 -413 123z" />
    <glyph glyph-name="wchat" unicode="&#xe600;" 
d="M237 575q0 -18 12.5 -30.5t30.5 -12.5t30.5 12.5t12.5 30.5v0q0 17 -12.5 29.5t-30.5 12.5t-30.5 -12.5t-12.5 -29.5v0zM571 353q0 -14 10 -24t24 -10t23.5 10t9.5 24t-9.5 23.5t-23.5 9.5t-24 -9.5t-10 -23.5zM456 575q0 -18 12.5 -30.5t30.5 -12.5t30.5 12.5t12.5 30.5
v0q0 17 -12.5 29.5t-30.5 12.5t-30.5 -12.5t-12.5 -29.5v0zM856 896h-689q-68 0 -116.5 -48.5t-48.5 -116.5v-688q0 -68 48.5 -116.5t116.5 -48.5h689q68 0 116.5 48.5t48.5 116.5v688q0 68 -48.5 116.5t-116.5 48.5zM384 214q-29 0 -108 16l-108 -55l31 93
q-123 87 -123 209q0 109 90.5 185.5t217.5 76.5q114 0 203 -61.5t109 -155.5q-16 2 -30 2q-110 0 -186 -71.5t-76 -172.5q0 -32 9 -65q-15 -1 -29 -1zM840 106l23 -77l-85 46q-61 -15 -92 -15q-110 0 -186.5 65.5t-76.5 158.5t76.5 158.5t186.5 65.5q105 0 183.5 -66.5
t78.5 -157.5q0 -97 -108 -178zM740 353q0 -14 9.5 -24t23.5 -10t24 10t10 24t-10 23.5t-24 9.5t-23.5 -9.5t-9.5 -23.5z" />
    <glyph glyph-name="guanbi1" unicode="&#xe723;" 
d="M557 383l266 264q9 9 9 22t-9.5 22.5t-22.5 9.5t-23 -9l-265 -264l-263 264q-9 9 -22.5 9t-23 -9t-9.5 -22.5t10 -22.5l263 -264l-265 -264q-10 -9 -10 -22.5t9.5 -22.5t22.5 -9t23 9l265 264l265 -267q10 -9 23 -9t22.5 9.5t9.5 22.5t-9 23z" />
    <glyph glyph-name="xuanze" unicode="&#xe72e;" 
d="M888 598q-10 9 -23 8.5t-22 -10.5l-427 -454l-233 230q-10 9 -23 9t-22.5 -9.5t-9.5 -23t10 -22.5l256 -253h1v0q1 -1 7 -4q0 -1 1 -1.5t2 -1.5q6 -2 12 -2t12 3q1 0 2 1t2 1q5 3 7 5v0v0l449 479q9 9 9 22.5t-10 22.5z" />
    <glyph glyph-name="mail" unicode="&#xe60e;" 
d="M919 745h-814q-29 0 -50.5 -21.5t-21.5 -50.5v-575q0 -29 21.5 -50t50.5 -21h814q30 0 51 21t21 50v575q0 29 -21 50.5t-51 21.5zM943 98q0 -10 -7 -17t-17 -7h-814q-10 0 -17 7t-7 17v575q0 10 7 17t17 7h814q10 0 17 -7t7 -17v-575zM936 713.5q-7 6.5 -16.5 6.5
t-16.5 -6l-366 -366q-16 -16 -24.5 -16.5t-24.5 15.5q-366 367 -367 367q-7 6 -16.5 6t-16.5 -6.5t-7 -16.5t7 -17q262 -261 366 -365q29 -28 59 -28t57 27q366 367 366 366q7 7 7 17t-7 16.5zM409.5 402q-6.5 7 -16.5 7t-17 -7l-312 -311q-7 -7 -7 -17t7 -16.5t16.5 -6.5
t16.5 6l313 312q6 7 6 16.5t-6.5 16.5zM960 91l-312 311q-7 7 -16.5 7t-16.5 -7t-7 -16.5t7 -16.5l312 -312q7 -6 16.5 -6t16.5 6.5t7 16.5t-7 17z" />
    <glyph glyph-name="back" unicode="&#xe602;" 
d="M703 -9l-393 393l393 393q9 9 9 22.5t-9.5 23t-22.5 9.5t-23 -9l-411 -412q-11 -11 -9 -26q-3 -16 9 -28l411 -412q10 -9 23.5 -9t23 9.5t9.5 23t-10 22.5z" />
    <glyph glyph-name="alipay" unicode="&#xe6b0;" 
d="M1024 195v504q0 81 -58 138.5t-139 57.5h-630q-81 0 -139 -57.5t-58 -138.5v-630q0 -82 58 -139.5t139 -57.5h630q72 0 126.5 46t67.5 116q-283 122 -397 176q-71 -86 -147.5 -129.5t-177.5 -43.5q-105 0 -169 56.5t-55 137.5q2 24 9.5 46t26.5 47t46.5 42t74.5 26t107 3
q23 -2 43 -4.5t40 -6.5t32.5 -7t33.5 -9.5t30.5 -9.5t35 -11.5t35.5 -11.5q35 64 57 139h-398v40h197v70h-240v44h240v102q0 2 1 4.5t6 7t13 4.5h98v-118h256v-44h-256v-70h209q-29 -116 -85 -213q27 -10 111 -36.5t155 -48.5zM284 104q-36 0 -65 7.5t-46.5 19t-30.5 26
t-17.5 29.5t-7 28.5t0.5 23.5q7 34 42.5 62.5t92.5 28.5q131 0 284 -75q-55 -72 -120 -111t-133 -39z" />
    <glyph glyph-name="mbphone" unicode="&#xe70f;" 
d="M736 96h-448v128h448v-128zM288 672v0h448v-384h-448v384zM736 736h-448v0q-26 0 -45 -18.5t-19 -45.5v-576q0 -27 19 -45.5t45 -18.5h448v0q26 0 45 18.5t19 45.5v576q0 27 -19 45.5t-45 18.5v0zM480 128h64q13 0 22.5 9.5t9.5 22.5t-9.5 22.5t-22.5 9.5h-64
q-13 0 -22.5 -9.5t-9.5 -22.5t9.5 -22.5t22.5 -9.5z" />
    <glyph glyph-name="right" unicode="&#xe609;" horiz-adv-x="1365" 
d="M126 445h949l-323 322q-17 18 -17 43t17.5 43t43 18t42.5 -18l427 -426q17 -18 17 -43.5t-17 -42.5l-426 -427q-18 -18 -43.5 -18t-42.5 18q-18 18 -18 43.5t18 42.5l322 323h-949q-25 0 -43 18t-18 43t17.5 43t43.5 18z" />
    <glyph glyph-name="home" unicode="&#xe60a;" 
d="M969 391l-441 440q-6 7 -16 7t-16 -7l-443 -442q-11 -11 -5 -25.5t21 -14.5h117v-396q0 -10 6.5 -16.5t16.5 -6.5h210q9 0 16 6.5t7 16.5v186h140v-186q0 -10 7 -16.5t16 -6.5h210q10 0 16.5 6.5t6.5 16.5v396h117q18 0 22 15.5t-8 26.5zM792 -24h-163v187q0 9 -7 16
t-17 7h-186q-10 0 -17 -7t-7 -16v-187h-163v373h560v-373zM125 396l387 386l387 -386h-774v0z" />
    <glyph glyph-name="course" unicode="&#xe60b;" 
d="M974 509l-309 40l-133 282q-6 12 -20 12t-20 -12l-133 -282l-309 -40q-14 -2 -18 -15t6 -23l226 -214l-57 -307q-2 -13 9 -21t23 -2l273 149l273 -149q12 -6 23 2t9 21l-57 307l226 214q10 10 5.5 23t-17.5 15zM721 280q-9 -8 -7 -19l51 -273l-242 133q-3 2 -11 2
q-4 0 -11 -2l-242 -133l51 273q2 11 -7 19l-202 191l276 36q12 2 17 12l118 252l119 -250q5 -11 16 -12l276 -38z" />
    <glyph glyph-name="sid1" unicode="&#xe60f;" 
d="M250 699q-2 3 -38 -2.5t-42 -7.5q-4 -1 1.5 -45.5t7.5 -46.5q4 -1 16 2q2 1 1.5 8t-2 18t-3 21t-3 17.5t-1.5 8.5t29 5t34 4q1 1 1 8t-1 10zM627 413q0 7 -9.5 73t-12.5 85q-3 16 -8 21t-13 4q-2 0 -161 -16.5t-169 -17.5q-25 -6 -19 -35q1 -4 12.5 -77t13.5 -82
q5 -20 36 -17q22 2 160 17t150 17q20 3 20 28zM283 369.5q-3 2.5 -16 86t-12 87.5q1 5 163.5 21t165.5 11q3 -6 15 -87.5t8 -84.5q-4 -4 -162.5 -20t-161.5 -13.5zM557 527q-4 5 -244 -20q-2 -1 -2 -6t1 -10l1 -4q244 22 248 26q5 5 -4 14zM316 453q-1 -2 -0.5 -10.5t3 -9.5
t130.5 11t131 13q1 2 -0.5 9t-2.5 9q-1 3 -261 -22v0zM381 412q-1 -2 0 -6.5t2 -5.5q2 -1 33.5 2t64.5 6.5t35 3.5t2.5 2.5t-0.5 6t-3 5.5q-2 3 -67.5 -4.5t-66.5 -9.5zM918 690q-2 13 -9 18.5t-17 2.5q-7 -1 -77 -53t-76 -58q-3 -2 -7.5 -11t-7.5 -16l-3 -7
q-29 151 -35 193q-2 12 -6.5 20.5t-7.5 12t-12 5.5t-11 2h-14q-19 -1 -252.5 -26t-261.5 -30q-12 -2 -18.5 -9t-8 -14t-0.5 -16.5t1.5 -13t1.5 -5.5v0q0 -3 34 -323t36 -333q3 -17 20.5 -29.5t32.5 -11.5q57 3 271 30q12 -21 21 -28q9 -5 42 -20t38 -15t43 9t44 13
q4 2 11.5 17.5t13.5 29.5l6 14q68 12 76 15q4 1 0 30.5t-9.5 60.5t-4.5 32l77 159t81 168q1 9 0.5 24t-2.5 44.5t-4 51t-4 44t-2 23.5zM520 114q-2 -2 -6 -10t-7 -15l-3 -7q-56 69 -57 69q-2 0 -6 -5t-3 -7q0 -1 16 -19.5t31.5 -37t14.5 -19.5l-7 -14l-22 -3q-54 66 -60 68
q-3 0 -7.5 -3t-4.5 -5q0 -3 55 -64v0l-39 -4q-34 46 -37 46l-13 -10q2 -3 5 -7t9.5 -12.5t10.5 -14.5t3 -6q-2 0 -33.5 -3.5l-67.5 -7.5t-46 -6q-18 -2 -27 2t-12 18q-3 15 -37 299.5t-36 312.5q0 6 -1 17q-3 39 3 41q8 4 257.5 32.5t252.5 24.5q2 -2 13.5 -62t22 -118.5
t9.5 -58.5l-16.5 13t-19.5 13q-2 -1 -4.5 -9.5t-0.5 -10.5q1 -1 12 -7.5t21.5 -13.5t10.5 -9l-10 -26q-22 19 -26 20q-1 1 -2 -0.5t-2 -3.5t-1.5 -4.5t-0.5 -4.5l-1 -1q25 -21 25 -24l-8 -17q-19 16 -22 16q-1 0 -3 -3t-3 -5l-1 -3l23 -20l-35 -78q-16 14 -18 14q-1 0 -3 -3
t-3 -6l-1 -4l19 -16q-1 0 -1 -1.5t-1.5 -4t-2.5 -5t-2.5 -5t-2.5 -4l-1 -1.5l-28 21l-8 -12q1 -1 10 -7.5t16 -13.5t6 -9l-22 -37q-31 34 -34 34q-2 0 -6.5 -6t-3.5 -7l36 -40l-16 -36l-39 45q-10 -10 -10 -13q0 -2 20.5 -26.5t20.5 -26.5l-21 -42q-47 57 -51 57
q-2 0 -5.5 -4t-3.5 -5t13 -17.5t25.5 -33.5t10.5 -18v0zM757 75q-22 -5 -26 -1q13 32 18 32q3 0 5.5 -8t3.5 -15t-1 -8zM666 1q-5 -3 -32 -11.5t-29 -8.5q-1 1 -13 6t-23 9.5l-11 4.5l195 415q-5 5 -8 5q-1 0 -98.5 -205.5t-101.5 -205.5t-11 14.5t-7 17.5q230 520 234 520
l6 -8.5t17 -10.5q9 -2 14.5 -1t9.5 2t5 0l5.5 -6.5t8.5 -9.5l14 -6l-170 -393q12 -7 13 -5q2 2 46 102t87.5 199t43.5 100q5 -12 14 -15q4 -2 9.5 -2.5t8.5 -0.5t3 -1q2 -2 -112 -252t-118 -253v0zM900 519q-17 0 -22 9q-2 4 -2 12t-1 8l-8 6q-1 -1 -2 -2.5t-5.5 -5t-8 -5
t-9 -3t-8.5 1.5q-7 6 -9 17t-4 11q-2 1 -15.5 -5.5t-21.5 -2.5q-6 4 -10 10t-5 11l-1 4q67 52 73 52q2 1 4.5 -1t8 -5.5t11.5 -5.5t12.5 -1.5t9 2t4.5 -0.5q2 0 5.5 -27.5t5 -51t-1.5 -27.5z" />
    <glyph glyph-name="sid4" unicode="&#xe610;" 
d="M810 362q-9 35 -31.5 66t-47.5 50t-51 32.5t-42 19t-19 5.5q-2 0 1 36t7 74t4 39q0 2 4.5 2.5t11.5 1.5t11 2q6 3 11.5 36.5t4.5 44.5q-1 4 -5 9t-14.5 11t-25.5 11.5t-41 9.5t-57 6q-51 2 -95.5 -3.5t-66 -12.5t-25.5 -12q-8 -11 6 -84q1 -3 7.5 -5t14.5 -3.5t9 -1.5
q2 -1 12.5 -87.5t8.5 -87.5q-26 -15 -68 -46t-66 -58q-34 -37 -54.5 -100.5t-3.5 -127.5q18 -69 54.5 -107.5t121.5 -80.5q87 -40 189.5 -27.5t153.5 62.5q54 51 79 142.5t2 183.5zM504 797q35 -1 64 -6t30 -9q1 -2 -2.5 -4.5t-10 -5t-18 -5t-27 -3.5t-36.5 1
q-50 3 -65.5 6.5t-17.5 11.5q-1 3 9.5 6.5t30.5 5.5t43 2zM369 722q-2 5 -4.5 30t-0.5 27q1 1 4 2l9 3t10 3t4 0v-1.5v-2.5t0.5 -3t1.5 -4t3.5 -4.5t5.5 -4.5t8 -4t12 -4q56 -14 119 -10q72 3 78 18q2 3 2 7t-1 6l-1 2q34 -12 35 -19q1 -4 -3.5 -27.5t-5.5 -26.5
q-2 -2 -18 -4.5t-49.5 -4.5t-82.5 2q-126 10 -126 20zM348 451q28 16 53.5 28t34 15.5t8.5 5.5t-12.5 95t-12.5 95q26 -10 94 -11q34 -1 52.5 -0.5t25.5 0.5l6 1l-9 -139q0 -22 2 -24t23 -10t53 -26t59 -44q18 -16 30.5 -34.5t18 -34t8 -28t2 -19.5t-2.5 -7l-6 0.5
t-12.5 0.5t-14.5 -0.5t-15.5 -2.5t-12.5 -5q-10 -5 -14.5 -7.5t-13 -5.5t-16 -2t-16.5 5q-1 0 -7.5 2.5t-8 3t-7.5 3t-8.5 2.5t-8 1t-9 1t-8.5 -0.5t-10 -1.5t-11 -3q-11 -4 -26 -11.5t-25.5 -11t-25.5 -2.5q-17 0 -50.5 16t-44.5 17q-9 0 -35.5 -10t-54.5 -10
q-23 0 -41 5.5t-25 11.5l-7 5q1 4 4 11t12 25.5t20 34.5t28.5 34.5t36.5 30.5zM784 246q-11 14 -14 14q-1 0 -3 -3t-4 -5l-2 -3q21 -21 21 -24l-6 -26h-2l-9 11t-17 20.5t-9 9.5q-2 0 -6 -7t-2 -9q39 -40 38 -43q0 -1 -1 -7.5t-2 -11.5t-2 -4.5t-20.5 22t-20.5 21.5
q-3 0 -7 -5.5t-1 -7.5q43 -43 42 -48l-9 -14q-36 43 -38.5 43t-6 -5.5t-0.5 -8.5q1 -2 11.5 -11.5t19.5 -19t7 -12.5l-13 -18q-24 32 -26 32t-4.5 -3t-3.5 -6l-2 -3l27 -32q-2 -4 -11 -15.5t-10 -9.5q-2 1 -6.5 6.5t-8.5 10t-5 4.5q-2 0 -6.5 -4t-3.5 -5t6 -6.5t9.5 -10.5
t3.5 -6q-1 -2 -8.5 -7.5t-10.5 -4.5q-2 1 -11 14t-10 13q-2 0 -7.5 -4t-4.5 -5q2 -3 18 -26v0l-19 -8l-23 28q-3 1 -8.5 -2t-4.5 -6q1 -1 5 -7t7 -11.5t1 -6.5q-3 -2 -26.5 -5.5t-64 -3t-74.5 9.5q-101 27 -163 97q-25 28 -37.5 83t0.5 89q4 -3 11.5 -7.5t29.5 -11.5t42 -6
q23 2 49 10.5t36 7.5q5 -1 38.5 -16.5t55.5 -14.5q17 1 56.5 17.5t53.5 13.5q8 -2 24.5 -8.5t24 -7.5t32.5 1q23 4 37 11t21 8q26 1 28 -2q1 -3 1 -10t-1 -14zM342 355q1 2 1.5 5t2.5 10t4 17q4 10 13 16t18 8l9 2q3 4 -5 10q-5 2 -17.5 -3.5t-23.5 -16.5q-7 -7 -11 -18.5
t-6 -19.5l-1 -7q3 -2 8.5 -3.5t7.5 0.5zM476 598q1 1 0 14t-3 27.5t-2 15.5q0 2 -4.5 2.5t-9.5 0t-5 -1.5q1 -2 3.5 -28t3.5 -28q0 -3 7.5 -3.5t9.5 1.5zM562 572q1 22 -15 30t-27 2q-13 -6 -19 -22.5t4 -31.5q11 -16 33.5 -8.5t23.5 30.5zM524 588q5 3 13 -1t8 -15
t-11.5 -14.5t-16.5 4.5q-5 7 -2.5 15t9.5 11zM471 416q11 -14 31.5 -7.5t20.5 27.5q0 19 -15 26t-24 2q-12 -6 -17.5 -20t4.5 -28zM489 451q5 2 12 -1.5t7 -12.5q0 -10 -10 -13t-15 4q-5 5 -2.5 12t8.5 11zM516 352q0 -4 1.5 -9t8.5 -11.5t18 -8.5q18 -3 36.5 5t21.5 20
q4 15 -8 29t-34 10q-22 -3 -33 -13.5t-11 -21.5zM585 359q-2 -7 -11 -11.5t-22 -1.5q-10 2 -12.5 7t2.5 10.5t16 8.5q8 3 18.5 -1.5t8.5 -11.5zM330 197q-16 -14 -15.5 -34t14.5 -36q11 -9 27.5 -8t30 14.5t11.5 29.5q-4 27 -26.5 38t-41.5 -4zM341 143q-8 9 -8 20.5t9 19.5
q11 8 23 1.5t14 -20.5q2 -15 -14 -23t-24 2zM483 193q1 17 -11.5 26.5t-27.5 3.5q-14 -8 -15.5 -24.5t7.5 -23.5q10 -10 28 -3.5t19 21.5zM448 187q-4 4 -3 11t7 10t12 -1.5t6 -11.5q-2 -6 -10 -8.5t-12 0.5zM570 233q-22 -12 -30.5 -29t-3 -31.5t20.5 -22.5q23 -13 50.5 0
t30.5 42t-20.5 42t-47.5 -1zM621 183q-3 -14 -16.5 -20.5t-27 -5t-17.5 8.5q-9 8 -5.5 24t22.5 27q17 10 33 -1t11 -33zM475 97q-16 -14 -12.5 -29t22 -20.5t31.5 4t11 26.5q-4 18 -22.5 23.5t-29.5 -4.5zM491 63q-8 3 -9.5 9.5t5.5 12.5q4 4 12 1.5t9 -9.5q2 -8 -4 -12
t-13 -2v0zM637 122q-9 -6 -9.5 -18.5t13.5 -18.5q14 -5 23.5 3t7.5 21q-1 10 -12.5 14.5t-22.5 -1.5z" />
    <glyph glyph-name="sid3" unicode="&#xe611;" 
d="M560 713q-2 -2 2 -7t10.5 -9t9 -2.5t5 9t8.5 14t32.5 18t32.5 16.5q7 6 15 28.5t12 28.5q5 8 11 12t19.5 8t19.5 6q10 4 16.5 10.5t8.5 10.5l2 5q-2 12 -9 12q-4 0 -6 -1.5t-7 -5.5t-11 -8q-19 -12 -43 -23q-15 -7 -42 -66q-2 -6 -17.5 -14t-28.5 -14l-14 -6
q-23 -18 -26 -22zM486 755q5 -2 21.5 6.5t30.5 17.5q7 5 12 23t10 28q8 15 24.5 17.5t19.5 5.5q6 7 4 17.5t-7 12.5q-10 8 -59 -21q-11 -7 -18 -20t-8 -23l-1 -10q-44 -13 -47 -19q-5 -9 3 -20t15 -15zM663 622q14 -12 25 -12q3 0 5.5 7t6.5 17t8.5 14t39 11.5t46.5 17.5
q14 10 35 48.5t22 40.5q4 4 8.5 6t13.5 5t18 7q13 6 21 27t9 21q3 4 8.5 7t8.5 4l4 1q0 1 0.5 3t1.5 7.5t-1 7.5q-2 4 -14.5 6.5t-18.5 -0.5q-5 -2 -18.5 -19.5t-19.5 -25.5q-3 -5 -40 -23q-16 -7 -26.5 -24t-18.5 -38t-11 -27q-5 -8 -17.5 -13.5t-35 -12t-38.5 -13.5
q-19 -8 -25 -20t-3.5 -19.5t6.5 -10.5zM921 696q-3 -2 -14.5 -10.5t-17.5 -12t-14.5 -25t-11 -25t-4.5 -5.5t-6.5 -4t-7 -3t-10 -3t-12.5 -4q-11 -3 -20 -11.5t-12.5 -16t-2.5 -10.5q3 -9 12 -9q4 1 12 14t15 18q8 6 21 7t17 2q6 3 9.5 8t7.5 15t6 13q0 2 2.5 7.5t3.5 6.5
t3.5 5t5 5.5t7 4t9.5 5.5q8 3 15 9t10 11t6.5 11l3.5 6q2 3 -2 6t-9 3q-3 0 -6.5 -2.5t-8 -7.5t-7.5 -8zM972 582q-3 -2 -8.5 -10.5t-13 -20.5t-10.5 -16q-7 -11 -30 -23q-8 -4 -12 -13.5t-4 -14.5q1 -7 13.5 -12t17.5 -4q2 1 3.5 2.5t2 3t2 5t1.5 5.5q3 6 30 21q6 2 8.5 4
t4.5 4.5t2.5 4t2.5 7t4 8.5q3 10 9 20t7 15q1 8 -12 12.5t-18 1.5zM790 487q-9 -4 -83.5 -73.5t-159.5 -144.5t-118 -92q-39 -20 -72 -27.5t-60.5 0.5t-42.5 32q-45 68 42 185q24 32 69.5 81t81.5 85.5t36 37.5q4 5 0 55.5t-12 68.5q-7 17 -63.5 41.5t-62.5 20.5
q-151 -110 -200 -177q-45 -63 -82.5 -149t-39.5 -171q-2 -94 35.5 -164t130.5 -146q60 -50 140 -60.5t152 10t131 62.5q75 54 193 164t122 124q3 17 2 76.5t-2 78.5q-3 14 -62.5 51.5t-74.5 30.5zM447 675q2 0 4 -6.5t2 -9.5q0 -2 -20 -21t-40 -37l-20 -18q-7 12 -9 12
q80 80 83 80zM234 616q10 6 91 -45q-9 -9 -23.5 -25t-48.5 -61.5t-56 -86.5q-39 -69 -37 -127.5t52 -111.5q33 -34 70.5 -43.5t74.5 0t90 34.5q43 21 93 61.5t81 70.5t33 30q10 -3 60 -28t45 -31q-4 -7 -46.5 -46t-105.5 -87t-104 -65q-48 -21 -101 -30t-110.5 0t-97.5 41
q-3 2 -10 7q-30 24 -43.5 35.5t-33 32t-27 37.5t-13.5 42.5t-6 56.5q2 85 54.5 190.5t118.5 148.5zM773 141q-2 47 -5 47t-9.5 -4t-6.5 -7q0 -1 2 -13.5t3 -22t-1 -15.5l-25 -24l-6 59l-20 -15l6 -56q-9 -12 -21 -20l-6 59q-21 -9 -21 -13q0 -2 3 -17.5t4.5 -28t-0.5 -18.5
q-2 -3 -8 -7.5t-11.5 -7.5t-5.5 -1.5t-1 12t-1.5 20.5l-0.5 10q-20 -3 -20 -9q0 -2 2 -14.5t3 -21t0 -12.5q-3 -5 -21 -14l-4 54q-16 -9 -16 -13q0 -2 2 -15t3.5 -25t0.5 -13q-5 -3 -16 -9.5t-11 -5.5l-1 11t-2.5 21l-1.5 10q-18 -3 -18 -8q0 -6 3 -48v0l-21 -9q-1 48 -3 50
t-11 -1.5t-9 -4.5l1.5 -8.5t3 -17.5t2 -17.5t-1.5 -9.5q-4 -3 -19 -7.5t-16 -2.5q-1 3 -1 54q-17 1 -17 -5q0 -1 1.5 -16t2 -24.5t-0.5 -13.5q-3 -1 -16 -3t-14 0q0 1 -0.5 14t-1.5 25l-1 12q-20 -3 -20 -7q0 -1 1.5 -15.5t2 -23.5t-1.5 -13q-1 0 -7.5 -0.5t-10.5 0t-5 2.5
q0 2 -0.5 26t-2.5 25q-2 3 -11.5 1.5t-9.5 -4.5l1 -13.5t1.5 -22.5t-0.5 -12q-29 0 -29 6q-1 4 -0.5 14t0.5 21t-1 12q-3 2 -10 3t-7 -2q0 -1 0.5 -6.5t0.5 -11.5t0.5 -12.5t-0.5 -10.5t-3 -4l-5.5 0.5t-12 1.5t-18 5.5t-24 11.5t-30 20.5t-36.5 31.5q-100 94 -92 119
q2 -3 6.5 -8t21 -19.5t35.5 -27.5t49 -28t63 -24q161 -44 282 39q30 20 87 67t98 81t42 32q2 -2 3 -24t2 -43v-21l-9 -6v0zM805 266q-8 14 -14 17q100 101 104 103q2 0 4 -7.5t3 -15.5l1 -8z" />
    <glyph glyph-name="menu" unicode="&#xe612;" 
d="M945 322h-866q-25 0 -43.5 18.5t-18.5 43.5t18.5 43.5t43.5 18.5h866q25 0 43.5 -18.5t18.5 -43.5t-18.5 -43.5t-43.5 -18.5zM945 653h-866q-25 0 -43.5 18t-18.5 43.5t18.5 44t43.5 18.5h866q25 0 43.5 -18.5t18.5 -43.5q0 -26 -18.5 -44t-43.5 -18zM79 115h866
q25 0 43.5 -18t18.5 -43.5t-18.5 -44t-43.5 -18.5h-866q-25 0 -43.5 18.5t-18.5 43.5q0 26 18.5 44t43.5 18z" />
    <glyph glyph-name="quoteicon" unicode="&#xe613;" 
d="M488 320v-223q0 -47 -33 -79q-30 -33 -78 -33h-221q-47 0 -78 33q-33 34 -33 79v408q0 60 24 115q23 56 63 96q39 39 94 64q56 23 114 23h37q16 0 26.5 -10.5t10.5 -25.5v-75q0 -15 -10.5 -25.5t-26.5 -10.5h-37q-62 0 -104 -43q-43 -43 -43 -105v-18q0 -24 16.5 -40
t39.5 -16h130q47 0 78 -33q31 -37 31 -81zM1004 320v-223q0 -47 -32 -79q-31 -33 -78 -33h-222q-47 0 -78 33q-33 34 -33 79v408q0 60 24 115q23 56 63 96q39 39 94 64q56 23 114 23h38q15 0 25.5 -10.5t10.5 -25.5v-75q0 -15 -10.5 -25.5t-25.5 -10.5h-38q-62 0 -103 -43
q-44 -43 -44 -105v-18q0 -24 16.5 -40t39.5 -16h129q47 0 78 -33q32 -38 32 -81z" />
    <glyph glyph-name="quoteicon1" unicode="&#xe616;" 
d="M573 398q31 32 78 32h129q22 0 40 17q16 16 16 39v19q0 62 -43 105t-104 43h-38q-15 0 -25.5 10.5t-10.5 25.5v75q0 15 10.5 25.5t25.5 10.5h37q59 0 114 -24q52 -21 95 -64q40 -40 63 -95q23 -56 23 -116v-408q0 -47 -33 -80q-31 -32 -78 -32h-221q-47 0 -78 32
q-33 35 -33 80v227q0 47 33 78zM57 398q31 32 78 32h129q22 0 40 17q16 16 16 39v19q0 62 -43 105t-104 43h-37q-15 0 -25.5 10.5t-10.5 25.5v75q0 15 10.5 25.5t25.5 10.5h37q59 0 114 -24q52 -21 95 -64q40 -40 63 -95q23 -56 23 -116v-408q0 -47 -33 -80q-31 -32 -78 -32
h-221q-47 0 -78 32q-33 35 -33 80v227q-2 46 32 78v0z" />
    <glyph glyph-name="search" unicode="&#xe614;" 
d="M445 644h-65v-131h-131v-65h131v-133h65v133h132v65h-132v131zM723 239q60 76 77 170.5t-11 187.5t-98 163q-56 56 -128.5 85.5t-149.5 29.5t-149.5 -29.5t-129 -86t-86 -130.5t-29.5 -148.5t29.5 -148.5t86 -130.5t129 -86t149.5 -29.5q136 0 241 84l280 -280l70 70z
M621 272q-86 -86 -209.5 -86t-209.5 86t-86 209t86 210q86 86 209.5 86t209.5 -86.5t86 -209.5q2 -121 -86 -209z" />
    <glyph glyph-name="phone" unicode="&#xe615;" 
d="M279 188l49 -49q20 -20 45 -23t40 12l368 368q15 15 11.5 40t-23.5 45l-47 48q-20 20 -23.5 45t11.5 40l138 138q21 21 54 9t49 -46q29 -65 29.5 -146t-26 -166t-81 -172.5t-130.5 -164.5q-77 -77 -165.5 -131.5t-174 -81t-167 -25.5t-146.5 31q-32 14 -43 47.5t8 53.5
l139 139q15 15 40 12t45 -23z" />
    <glyph glyph-name="bbs" unicode="&#xe617;" 
d="M949 744h-524q-9 0 -15.5 -6t-6.5 -15v-153h-328q-9 0 -15.5 -6.5t-6.5 -15.5v-350q0 -9 6.5 -15.5t15.5 -6.5h87v-131q0 -14 8.5 -19t17 -2.5t12.5 6.5l146 146h253q9 0 15.5 6.5t6.5 15.5v153h58l145 -146q11 -11 24.5 -5t13.5 20v131h87q9 0 15.5 6.5t6.5 15.5v350
q0 9 -6.5 15t-15.5 6zM578 220h-241q-9 0 -15 -6l-116 -116v100q0 9 -6.5 15.5t-15.5 6.5h-87v306h306v-153q0 -9 6.5 -15.5t15.5 -6.5h153v-131zM927 395h-87q-9 0 -15.5 -6.5t-6.5 -15.5v-100l-115 115q-6 7 -15 7h-242v306h481v-306z" />
    <glyph glyph-name="center" unicode="&#xe618;" 
d="M628 357q59 37 96 103t37 135q0 65 -32 128t-90 104.5t-127 41.5t-127 -41.5t-90 -104.5t-32 -128q0 -69 37 -135t96 -103q-144 -39 -237.5 -159t-93.5 -274q0 -10 7 -17.5t17 -7.5h846q10 0 17 7.5t7 17.5q0 154 -93.5 274t-237.5 159zM313 595q0 92 62.5 158t136.5 66
t136.5 -66t62.5 -158t-62.5 -157.5t-136.5 -65.5t-136.5 65.5t-62.5 157.5zM116 -51q6 102 60.5 188t143.5 135.5t192 49.5t192 -49.5t143.5 -135.5t60.5 -188h-792z" />
    <glyph glyph-name="about" unicode="&#xe619;" 
d="M810 471q0 -10 -7 -17.5t-18 -7.5h-546q-11 0 -18 7.5t-7 17.5t7 17.5t18 7.5h546q11 0 18 -7.5t7 -17.5zM634 372h-395q-11 0 -18 -7.5t-7 -18t7 -17.5t18 -7h395q10 0 17.5 7t7.5 17.5t-7.5 18t-17.5 7.5zM785 620h-546q-11 0 -18 -7t-7 -17.5t7 -18t18 -7.5h546
q11 0 18 7.5t7 18t-7 17.5t-18 7zM984 769v-596q0 -11 -7 -18t-18 -7h-484l-169 -167q-4 -4 -14 -6.5t-19.5 3t-9.5 21.5v149h-198q-11 0 -18 7t-7 18v596q0 11 7 18t18 7h894q11 0 18 -7t7 -18zM935 744h-846v-546h199q11 0 18 -7.5t7 -17.5v-115l134 132q8 8 18 8h470v546
z" />
    <glyph glyph-name="left" unicode="&#xe61a;" horiz-adv-x="1365" 
d="M1241 323h-949l322 -322q18 -18 18 -43t-17.5 -43t-43 -18t-43.5 18l-426 426q-18 18 -18 43.5t18 42.5l426 427q18 18 43.5 18t42.5 -18q18 -18 18 -43.5t-18 -42.5l-322 -323h949q25 0 43 -18t18 -43t-18 -43t-43 -18z" />
    <glyph glyph-name="logo" unicode="&#xe627;" 
d="M257.5 869q-96.5 0 -167.5 -71.5t-71 -167.5q0 -95 61 -160t159 -79h37q95 0 158 70t63 169q0 96 -71.5 167.5t-168 71.5zM295 446h-92v147h-148v74h148v147h92v-147h147v-92h-147v-129zM754 372q-93 0 -158.5 -58t-80.5 -144v-55q14 -98 79 -159.5t160 -61.5
q97 0 168 71.5t71 168t-71 167.5t-168 71zM754 317q56 0 56 -55t-56 -55q-24 0 -39.5 19t-15.5 36t15.5 36t39.5 19zM754.5 -32q-55.5 0 -55.5 55t55.5 55t55.5 -55t-55.5 -55zM570 96v92h368v-92h-368zM295 446h-92v147h-148v74l-36 -37v-239h478v478h-239l-184 -202h129
v147h92v-147h147v-74h-147v-147zM203 133zM19 372v-478h478v478h-478zM423 23l-55 -55l-110 110l-111 -110l-55 55l111 110l-111 111l55 55l111 -111l110 111l55 -55l-110 -111zM515 372v-478h239l239 239v239h-478zM754 317q56 0 56 -55t-56 -55q-24 0 -39.5 19t-15.5 36
t15.5 36t39.5 19zM754.5 -32q-55.5 0 -55.5 55t55.5 55t55.5 -55t-55.5 -55zM920 96h-368v92h368v-92zM515 869v-478h478v478h-478zM938 593h-368v92h368v-92z" />
    <glyph glyph-name="up" unicode="&#xe6f2;" 
d="M119 171l393 393l393 -393q9 -9 22.5 -9t23 9.5t9.5 23t-9 22.5l-412 412q-11 11 -26 9q-16 2 -28 -9l-412 -412q-9 -9 -9 -22.5t9.5 -23t23 -9.5t22.5 9z" />
    <glyph glyph-name="wodekecheng" unicode="&#xe61b;" 
d="M859 674q-66 66 -159.5 66t-160.5 -66l-26 -28l-27 28q-66 66 -160 66t-160 -66q-65 -66 -65 -159.5t65 -160.5l34 -34l313 -313l314 313l33 34q66 66 66 160t-67 160zM513 569q43 41 75 66q62 46 130 39q57 -6 105 -59q39 -44 38.5 -102.5t-39.5 -102.5
q-14 -15 -54.5 -56.5t-74.5 -75.5l-34 -34l-146 -146l-147 147q-133 132 -162 166q-40 44 -40 102.5t38 102.5q46 53 105 59q67 7 130 -39q15 -11 33.5 -27.5t30.5 -28l12 -11.5v0z" />
    <glyph glyph-name="tiantianlian" unicode="&#xe61c;" 
d="M696 830l-555 -555v-187h187l554 553zM700 742l96 -97l-508 -507l-96 96zM141 -14h437v-48h-437v48z" />
    <glyph glyph-name="cuotiben" unicode="&#xe61d;" 
d="M643 804h-454v-840h646v634zM774 553v-524h-524v715h366v-166h158v-25zM346 586h141v-56h-141v56zM346 414h332v-56h-332v56zM346 242h250v-57h-250v57z" />
    <glyph glyph-name="jichuziliao" unicode="&#xe61e;" 
d="M808 757h-662v-661h662v661zM738 159h-522v522h522v-522zM858 674v-618h-617v-45h662v663h-45z" />
    <glyph glyph-name="summer" unicode="&#xe61f;" 
d="M986 396l-169 126l30 209l-208 -30l-127 169l-126 -169l-209 30l30 -209l-169 -126l169 -126l-30 -209l209 30l126 -169l126 169l209 -30l-30 208zM512 100q-123 0 -209.5 86.5t-86.5 209.5t86.5 209.5t209.5 86.5t209.5 -86.5t86.5 -209.5t-86.5 -209.5t-209.5 -86.5z
M512 396zM275 396q0 -98 69.5 -167.5t167.5 -69.5t167.5 69.5t69.5 167.5t-69.5 167.5t-167.5 69.5t-167.5 -69.5t-69.5 -167.5zM512 248q-70 0 -131.5 31t-102.5 84q12 -87 78.5 -145.5t155.5 -58.5t156 58.5t78 145.5q-41 -53 -102.5 -84t-131.5 -31z" />
    <glyph glyph-name="autumn" unicode="&#xe620;" 
d="M433 496l-88 187q-19 37 -69.5 35t-83.5 -35q-32 -33 -33.5 -82t33.5 -70l187 -88q20 34 54 53zM460 507q19 6 37 6t38 -6l70 194q14 39 -23.5 73.5t-84.5 34.5q-46 0 -82.5 -34.5t-25.5 -73.5zM801 683q-32 33 -81 34t-71 -34l-88 -187q35 -19 54 -54l186 89
q37 19 35 69t-35 83zM820 486l-194 -70q5 -20 5 -37q0 -18 -6 -38l195 -70q38 -14 72.5 23.5t34.5 84.5q1 46 -33.5 82t-73.5 25zM801 226l-187 88q-19 -34 -53 -53l88 -187q20 -37 70 -35t82 35q33 33 34.5 82t-34.5 70zM534 250q-19 -6 -37 -6t-38 6l-70 -194
q-14 -38 23.5 -73t84.5 -35q46 0 82.5 34.5t25.5 73.5zM379 315l-186 -89q-38 -19 -36 -69t36 -83q32 -32 81 -33.5t71 33.5l87 187q-34 19 -53 54zM362 379q0 17 7 38l-195 69q-38 14 -73 -23.5t-35 -83.5q0 -47 34.5 -83t73.5 -25l194 70q-6 21 -6 38zM497 379zM389 378.5
q0 -44.5 31.5 -76t76 -31.5t76.5 31.5t32 76t-32 76t-76.5 31.5t-76 -31.5t-31.5 -76zM497 325q-60 0 -106 40q5 -40 35 -67t71 -27t71 27t35 67q-46 -40 -106 -40zM368 341q-3 11 -3 17q-3 11 -3 21t3 21q1 7 4 17v0l-26 9q-8 -23 -8 -47t7 -47zM383 493q-17 -17 -29 -38
l25 -12q6 10 9 14q7 10 14 17q6 7 16 13q7 5 15 9v0l-12 25q-22 -12 -38 -28zM450 533l10 -26q10 3 16 4q11 2 21 2t21 -2q10 -2 17 -4v0l9 26q-23 7 -47 7q-23 0 -47 -7zM576 487q9 -7 16 -13q7 -7 14 -17q4 -5 9 -14v-1l25 12q-12 22 -29 39t-38 28l-12 -25h1q7 -4 14 -9z
M652 425l-26 -9q2 -10 3 -16q2 -12 2 -21q0 -10 -2 -22q-1 -9 -4 -16v-1l26 -9q7 23 7 48q0 23 -6 46zM614 314q-5 -10 -8 -14q-7 -10 -14 -17q-6 -6 -16 -13q-2 -2 -15 -9v-1l12 -25q21 12 38 29t28 38zM534 250q-10 -3 -16 -4q-11 -2 -21 -2t-21 2q-7 1 -17 4v0l-9 -26
q23 -7 47 -7t47 7zM418 270q-9 7 -16 13q-7 7 -14 17q-1 2 -9 14v1l-25 -12q11 -21 29 -39q17 -17 38 -28l12 25h-1q-6 4 -14 9z" />
    <glyph glyph-name="spring" unicode="&#xe621;" 
d="M789 399l-144 24l144 24q53 11 86.5 42t33.5 79q0 49 -35 84.5t-85 35.5q0 -1 -10.5 -16t-35 -44.5t-53 -57.5t-58 -53t-44.5 -35l-16 -10q50 69 99 118q46 46 117 98h1q0 50 -35.5 85t-85.5 35q-47 0 -79 -35t-41 -85l-24 -144l-24 144q-10 53 -41 86.5t-79 33.5
q-50 0 -85 -35t-35 -85q69 -49 118 -98q22 -22 46.5 -51.5t38.5 -48.5l13 -18q-54 34 -118 98q-28 28 -52.5 57.5t-35.5 45.5l-10 15q-50 0 -85 -35t-35 -85q0 -47 35 -79t85 -41l144 -24l-144 -24q-53 -11 -86.5 -42t-33.5 -79q0 -49 35 -84.5t85 -35.5q0 -50 35 -85
t85 -35q47 0 79 35t41 85l24 144l24 -144q11 -53 42 -86.5t78 -33.5q50 0 85.5 35t35.5 85q49 0 84.5 35.5t35.5 84.5q0 48 -35 79.5t-85 40.5zM378 257q-28 -28 -57.5 -52.5t-45.5 -35.5l-15 -10q49 69 98 118q22 22 51.5 46.5t48.5 38.5l18 13q-34 -54 -98 -118zM671 257
q-29 29 -53.5 58.5t-34.5 44.5l-10 15q69 -49 118 -98q22 -22 46.5 -51.5t37.5 -47.5l14 -19q-54 35 -118 98zM501 117v-131q0 -14 7 -23.5t16.5 -9.5t16.5 9.5t7 23.5v131l-24 197zM501 117v-95q17 42 23 89v3l1 -2q7 -49 23 -89v94l-24 197z" />
    <glyph glyph-name="winter" unicode="&#xe622;" 
d="M935 416h-63l31 54q6 10 3 21t-13 17t-21 3t-17 -13l-47 -82h-184l78 45q10 6 13 17t-3 21t-17 13t-20 -3l-79 -45l93 159h94q11 0 19.5 8t8.5 19.5t-8.5 19.5t-19.5 8h-63l32 55q6 10 3 21t-13 16.5t-21 2.5t-17 -12l-31 -55l-32 54q-5 10 -16 13t-21 -2.5t-13 -16.5
t3 -21l47 -82l-92 -160v91q0 11 -8 19t-19.5 8t-20 -8t-8.5 -19v-90l-92 159l48 81q5 10 2.5 21t-12.5 17t-21 3t-17 -13l-31 -54l-32 54q-5 10 -16.5 13t-21 -2.5t-12.5 -16.5t2 -21l32 -55h-63q-11 0 -19 -8t-8 -19.5t8 -19.5t19 -8h95l92 -159l-78 45q-10 5 -21 2
t-17 -12.5t-3 -20.5t13 -17l78 -45h-184l-47 82q-6 9 -17 12t-21 -2.5t-12.5 -16.5t2.5 -21l31 -54h-62q-12 0 -20 -8t-8 -19.5t8 -20t20 -8.5h62l-31 -54q-6 -10 -3 -21t13 -16.5t21 -2.5t17 13l47 81h184l-78 -45q-10 -5 -13 -16t3 -21t17 -13t20 3l79 45l-92 -160h-95
q-11 0 -19 -8t-8 -19.5t8 -19.5t19 -8h63l-32 -55q-5 -9 -2.5 -20t12.5 -17t21 -3t17 13l32 54l31 -54q6 -10 17 -13t21 3t12.5 17t-2.5 21l-48 82l92 159v-90q0 -11 8.5 -19t20 -8t19.5 8t8 19v90l92 -159l-48 -82q-5 -10 -2 -21t12.5 -16.5t20.5 -2.5t17 13l32 54l31 -55
q6 -10 17 -12.5t21 3t13 16.5t-3 21l-32 55h63q11 0 19 8t8 19.5t-8 19.5t-19 8h-95l-92 159l78 -45q10 -5 21 -2.5t17 12.5t3 21t-13 17l-78 45h184l47 -82q6 -10 17 -13t21 3t13 17t-3 21l-31 54h63q11 0 19 8t8 19.5t-8 19.5t-19 8zM521 333q-23 0 -39 16t-16 39t16 39
t39 16t39 -16t16 -39t-16 -39t-39 -16z" />
    <glyph glyph-name="other-copy" unicode="&#xe623;" 
d="M298 493l84 22l22 84l-165 96q-18 10 -32.5 -4.5t-3.5 -32.5zM639 515l84 -22l95 165q10 18 -4 32q-15 15 -33 5l-164 -96zM382 258l-84 23l-95 -165q-11 -18 3.5 -32.5t32.5 -4.5l165 96zM723 281l-84 -23l-22 -83l165 -96q18 -10 32.5 4.5t3.5 32.5zM920 413l-303 80
l-81 303q-5 20 -25.5 20t-26.5 -20l-80 -303l-303 -80q-20 -6 -20 -26.5t20 -25.5l303 -81l80 -303q6 -19 26.5 -19t25.5 19l81 303l303 81q20 5 20 25.5t-20 26.5zM298 493l84 22l22 84l-165 96q-18 10 -32.5 -4.5t-3.5 -32.5zM723 493l95 165q11 18 -4 32q-15 15 -32 5
l-165 -96l22 -84zM298 281l-95 -165q-11 -18 3.5 -32.5t32.5 -4.5l165 96l-22 83zM723 281l-84 -23l-22 -83l165 -96q18 -10 32.5 4.5t3.5 32.5zM510 -42q21 0 26 19l81 303l-107 107v-429zM101 361l303 -81l106 107h-429q0 -21 20 -26zM484 796l-80 -303l106 -106v429
q-20 0 -26 -20zM920 413l-303 80l-107 -106h430q0 20 -20 26zM723 281l-84 -23l175 -175q15 15 4 33zM814 691q-15 14 -33 4l-164 -96l22 -83zM298 493l84 22l-175 175q-15 -14 -4 -32zM207 83q14 -14 32 -4l165 96l-22 83z" />
  </font>
</defs>
</svg>
